# xmcd
#
# Track frame offsets: 
#        150
#        17111
#        44356
#        62564
#        81934
#        97667
#        112349
#        140119
#        157539
#        175750
#        205244
#        226416
#        238142
#        264901
#        279782
#        296044
#        313389
#
# Disc length: 4403 seconds
#
# Revision: 3
# Processed by: cddbd v1.5.2PL0 Copyright (c) Steve Scherf et al.
# Submitted via: ExactAudioCopy v0.99pb4
#
DISCID=ec113111
DTITLE=Bryan Adams - Golden collection 2000
DYEAR=1999
DGENRE=Hard Rock
TTITLE0=Only The Strong Survive
TTITLE1=Native Son
TTITLE2=Rebel
TTITLE3=Home Again
TTITLE4=Straight Feom The Heart
TTITLE5=It's Only Love
TTITLE6=Do I Have To Say The Words
TTITLE7=Run To You
TTITLE8=Heaven
TTITLE9=(Everything I Do) I Do It For You
TTITLE10=Somebody
TTITLE11=Kids Wanna Rock
TTITLE12=Please Forgive Me
TTITLE13=(I Wanna Be) Your Under Wear
TTITLE14=C'mon C'mon C'mon
TTITLE15=Gateway
TTITLE16=Where Angels Fear To Tread
EXTD=
EXTT0=
EXTT1=
EXTT2=
EXTT3=
EXTT4=
EXTT5=
EXTT6=
EXTT7=
EXTT8=
EXTT9=
EXTT10=
EXTT11=
EXTT12=
EXTT13=
EXTT14=
EXTT15=
EXTT16=
PLAYORDER=
